# xmcd
#
# Track frame offsets:
#	150
#	13564
#	26033
#	37881
#	58727
#	72727
#	85140
#	97090
#	113787
#	125502
#
# Disc length: 1848 seconds
#
# Revision: 1
# Processed by: cddbd v1.5.1PL0 Copyright (c) Steve Scherf et al.
# Submitted via: dBpowerAMP V4.0
#
DISCID=8607360a
DTITLE=Glen Campbell - Pure Platinum Disc 2
DYEAR=2003
DGENRE=Country
TTITLE0=Rhinestone Cowboy
TTITLE1=By The Time I Get To Phonenix
TTITLE2=You Don't Have to Say You Love Me
TTITLE3=Bridge Over Troubled Water
TTITLE4=Without You
TTITLE5=You'll Never Walk Alone
TTITLE6=The Impossible Dream
TTITLE7=Feelings
TTITLE8=Blue Sky Shining
TTITLE9=Young at Heart
EXTD=
EXTT0=
EXTT1=
EXTT2=
EXTT3=
EXTT4=
EXTT5=
EXTT6=
EXTT7=
EXTT8=
EXTT9=
PLAYORDER=
